<svg xmlns="http://www.w3.org/2000/svg" xmlns:xlink="http://www.w3.org/1999/xlink" width="100" zoomAndPan="magnify" viewBox="0 0 75 74.999997" height="100" preserveAspectRatio="xMidYMid meet" version="1.0"><defs><clipPath id="ccd83acb90"><path d="M 21 25 L 66.789062 25 L 66.789062 55.882812 L 21 55.882812 Z M 21 25 " clip-rule="nonzero"/></clipPath><clipPath id="3ac02e5544"><path d="M 8.289062 19.132812 L 37 19.132812 L 37 43 L 8.289062 43 Z M 8.289062 19.132812 " clip-rule="nonzero"/></clipPath></defs><g clip-path="url(#ccd83acb90)"><path fill="#ffffff" d="M 26.472656 47.8125 L 28.773438 45.511719 C 29.226562 45.054688 29.96875 45.054688 30.425781 45.511719 C 30.882812 45.96875 30.882812 46.710938 30.425781 47.167969 L 28.128906 49.46875 C 27.898438 49.695312 27.601562 49.808594 27.300781 49.808594 C 27 49.808594 26.703125 49.695312 26.472656 49.46875 C 26.015625 49.007812 26.015625 48.269531 26.472656 47.8125 Z M 33.828125 44.84375 L 36.128906 42.546875 C 36.585938 42.089844 37.324219 42.089844 37.78125 42.546875 C 38.238281 43.003906 38.238281 43.746094 37.78125 44.203125 L 35.484375 46.5 C 35.253906 46.726562 34.957031 46.84375 34.65625 46.84375 C 34.359375 46.84375 34.058594 46.726562 33.828125 46.5 C 33.371094 46.042969 33.371094 45.300781 33.828125 44.84375 Z M 38.273438 50.148438 L 35.972656 52.445312 C 35.746094 52.675781 35.445312 52.789062 35.144531 52.789062 C 34.847656 52.789062 34.546875 52.675781 34.320312 52.445312 C 33.863281 51.988281 33.863281 51.25 34.320312 50.792969 L 36.617188 48.492188 C 37.074219 48.039062 37.816406 48.035156 38.273438 48.492188 C 38.730469 48.949219 38.730469 49.691406 38.273438 50.148438 Z M 21.109375 52.207031 C 21.183594 52.429688 21.378906 52.832031 21.878906 53.019531 C 29.339844 55.855469 43.675781 55.820312 43.824219 55.8125 C 43.824219 55.8125 43.828125 55.8125 43.828125 55.8125 C 43.835938 55.8125 43.851562 55.8125 43.902344 55.8125 C 44.980469 55.8125 58.578125 55.753906 65.777344 53.019531 C 66.277344 52.832031 66.472656 52.429688 66.546875 52.207031 C 66.679688 51.800781 66.621094 51.367188 66.390625 51.007812 C 56.398438 35.5625 47.753906 25.96875 43.828125 25.96875 C 39.90625 25.96875 31.257812 35.5625 21.265625 51.007812 C 21.035156 51.367188 20.976562 51.800781 21.109375 52.207031 " fill-opacity="1" fill-rule="nonzero"/></g><g clip-path="url(#3ac02e5544)"><path fill="#ffffff" d="M 20.484375 39.292969 C 20.253906 39.519531 19.957031 39.636719 19.65625 39.636719 C 19.359375 39.636719 19.058594 39.519531 18.828125 39.292969 C 18.371094 38.835938 18.371094 38.09375 18.828125 37.636719 L 20.488281 35.980469 C 20.945312 35.523438 21.683594 35.523438 22.140625 35.980469 C 22.597656 36.4375 22.597656 37.175781 22.140625 37.632812 Z M 18.476562 33.351562 L 20.136719 31.691406 C 20.59375 31.234375 21.332031 31.234375 21.789062 31.691406 C 22.246094 32.148438 22.246094 32.890625 21.789062 33.347656 L 20.132812 35.003906 C 19.902344 35.234375 19.605469 35.347656 19.304688 35.347656 C 19.007812 35.347656 18.707031 35.234375 18.476562 35.003906 C 18.019531 34.546875 18.019531 33.808594 18.476562 33.351562 Z M 16.484375 35.484375 L 14.828125 37.144531 C 14.597656 37.371094 14.300781 37.484375 14 37.484375 C 13.703125 37.484375 13.402344 37.371094 13.171875 37.144531 C 12.714844 36.6875 12.714844 35.945312 13.171875 35.488281 L 14.832031 33.832031 C 15.289062 33.375 16.027344 33.375 16.484375 33.832031 C 16.941406 34.289062 16.941406 35.027344 16.484375 35.484375 Z M 36.15625 28.023438 C 32.554688 23.410156 28.519531 19.128906 25.917969 19.128906 C 21.285156 19.128906 12.082031 32.714844 8.941406 37.566406 C 8.3125 38.535156 8.714844 39.855469 9.792969 40.265625 C 14.054688 41.882812 21.171875 42.234375 24.320312 42.3125 C 27.984375 37.128906 32.226562 31.691406 36.15625 28.023438 " fill-opacity="1" fill-rule="nonzero"/></g></svg>