<svg xmlns="http://www.w3.org/2000/svg" xmlns:xlink="http://www.w3.org/1999/xlink" width="200" zoomAndPan="magnify" viewBox="0 0 150 149.999998" height="200" preserveAspectRatio="xMidYMid meet" version="1.0"><defs><clipPath id="e101230db5"><path d="M 12.664062 48 L 28 48 L 28 65 L 12.664062 65 Z M 12.664062 48 " clip-rule="nonzero"/></clipPath><clipPath id="5b6e1c7789"><path d="M 12.664062 86 L 28 86 L 28 102 L 12.664062 102 Z M 12.664062 86 " clip-rule="nonzero"/></clipPath><clipPath id="bb1e2c661a"><path d="M 122 67 L 137.164062 67 L 137.164062 83 L 122 83 Z M 122 67 " clip-rule="nonzero"/></clipPath></defs><path fill="#ffffff" d="M 48.824219 73.457031 L 68.402344 73.457031 L 78.191406 56.511719 L 68.402344 39.570312 L 48.824219 39.570312 L 39.035156 56.511719 Z M 69.496094 77.242188 L 47.757812 77.242188 C 47.085938 77.242188 46.46875 76.878906 46.128906 76.285156 L 35.21875 57.464844 C 34.882812 56.875 34.882812 56.175781 35.21875 55.585938 L 46.101562 36.765625 C 46.4375 36.175781 47.054688 35.808594 47.730469 35.808594 L 69.46875 35.808594 C 70.144531 35.808594 70.757812 36.171875 71.097656 36.765625 L 81.980469 55.585938 C 82.316406 56.175781 82.316406 56.90625 81.980469 57.464844 L 71.097656 76.285156 C 70.789062 76.878906 70.171875 77.242188 69.496094 77.242188 Z M 69.496094 77.242188 " fill-opacity="1" fill-rule="evenodd"/><path fill="#ffffff" d="M 51.683594 70.398438 C 51.039062 70.398438 50.394531 70.066406 50.054688 69.445312 L 43.101562 57.46875 C 42.765625 56.878906 42.765625 56.148438 43.101562 55.589844 L 50.027344 43.558594 C 50.5625 42.660156 51.710938 42.351562 52.609375 42.855469 C 53.503906 43.390625 53.8125 44.535156 53.308594 45.433594 L 46.914062 56.511719 L 53.308594 67.566406 C 53.84375 68.464844 53.535156 69.617188 52.609375 70.148438 C 52.328125 70.3125 51.996094 70.398438 51.683594 70.398438 Z M 51.683594 70.398438 " fill-opacity="1" fill-rule="evenodd"/><path fill="#ffffff" d="M 65.542969 70.398438 C 65.234375 70.398438 64.898438 70.3125 64.585938 70.148438 C 63.691406 69.613281 63.382812 68.464844 63.886719 67.566406 L 70.28125 56.511719 L 63.886719 45.433594 C 63.351562 44.535156 63.660156 43.386719 64.585938 42.855469 C 65.484375 42.320312 66.636719 42.628906 67.167969 43.558594 L 74.09375 55.589844 C 74.429688 56.179688 74.429688 56.878906 74.09375 57.46875 L 67.167969 69.472656 C 66.832031 70.0625 66.214844 70.398438 65.542969 70.398438 Z M 65.542969 70.398438 " fill-opacity="1" fill-rule="evenodd"/><path fill="#ffffff" d="M 47.757812 39.539062 C 47.113281 39.539062 46.46875 39.207031 46.128906 38.585938 L 40.6875 29.273438 C 40.152344 28.375 40.464844 27.226562 41.363281 26.695312 C 42.257812 26.160156 43.410156 26.46875 43.941406 27.367188 L 49.382812 36.707031 C 49.917969 37.605469 49.605469 38.757812 48.710938 39.289062 C 48.402344 39.457031 48.0625 39.539062 47.757812 39.539062 Z M 47.757812 39.539062 " fill-opacity="1" fill-rule="evenodd"/><path fill="#ffffff" d="M 39.457031 19.457031 C 37.324219 19.457031 35.585938 21.195312 35.585938 23.328125 C 35.585938 25.457031 37.324219 27.199219 39.457031 27.199219 C 41.585938 27.199219 43.324219 25.457031 43.324219 23.328125 C 43.324219 21.195312 41.585938 19.457031 39.457031 19.457031 Z M 39.457031 30.988281 C 35.246094 30.988281 31.824219 27.566406 31.824219 23.359375 C 31.824219 19.152344 35.246094 15.730469 39.457031 15.730469 C 43.664062 15.730469 47.085938 19.152344 47.085938 23.359375 C 47.113281 27.535156 43.6875 30.988281 39.457031 30.988281 Z M 39.457031 30.988281 " fill-opacity="1" fill-rule="evenodd"/><path fill="#ffffff" d="M 36.875 58.390625 L 26.074219 58.390625 C 25.039062 58.390625 24.195312 57.550781 24.195312 56.511719 C 24.195312 55.476562 25.039062 54.636719 26.074219 54.636719 L 36.875 54.636719 C 37.914062 54.636719 38.753906 55.476562 38.753906 56.511719 C 38.753906 57.550781 37.914062 58.390625 36.875 58.390625 Z M 36.875 58.390625 " fill-opacity="1" fill-rule="evenodd"/><g clip-path="url(#e101230db5)"><path fill="#ffffff" d="M 20.324219 52.644531 C 18.191406 52.644531 16.453125 54.382812 16.453125 56.511719 C 16.453125 58.644531 18.191406 60.382812 20.324219 60.382812 C 22.453125 60.382812 24.191406 58.644531 24.191406 56.511719 C 24.191406 54.382812 22.453125 52.644531 20.324219 52.644531 Z M 20.324219 64.140625 C 16.113281 64.140625 12.695312 60.722656 12.695312 56.511719 C 12.695312 52.304688 16.113281 48.882812 20.324219 48.882812 C 24.53125 48.882812 27.953125 52.304688 27.953125 56.511719 C 27.953125 60.722656 24.53125 64.140625 20.324219 64.140625 Z M 20.324219 64.140625 " fill-opacity="1" fill-rule="evenodd"/></g><path fill="#ffffff" d="M 69.496094 39.539062 C 69.1875 39.539062 68.851562 39.457031 68.542969 39.289062 C 67.644531 38.753906 67.339844 37.605469 67.839844 36.707031 L 73.226562 27.398438 C 73.757812 26.5 74.90625 26.191406 75.804688 26.695312 C 76.703125 27.230469 77.007812 28.375 76.507812 29.273438 L 71.121094 38.585938 C 70.789062 39.207031 70.144531 39.539062 69.496094 39.539062 Z M 69.496094 39.539062 " fill-opacity="1" fill-rule="evenodd"/><path fill="#ffffff" d="M 77.773438 19.457031 C 75.976562 19.457031 74.375 20.71875 73.984375 22.515625 C 73.757812 23.523438 73.957031 24.5625 74.519531 25.433594 C 75.078125 26.304688 75.949219 26.890625 76.960938 27.117188 C 77.96875 27.339844 79.007812 27.144531 79.878906 26.582031 C 80.746094 26.019531 81.335938 25.152344 81.558594 24.140625 C 81.785156 23.132812 81.589844 22.089844 81.023438 21.222656 C 80.460938 20.351562 79.597656 19.765625 78.585938 19.539062 C 78.304688 19.515625 78.023438 19.457031 77.773438 19.457031 Z M 77.773438 30.988281 C 77.238281 30.988281 76.707031 30.933594 76.171875 30.820312 C 74.179688 30.402344 72.46875 29.222656 71.347656 27.511719 C 70.226562 25.800781 69.863281 23.75 70.28125 21.757812 C 71.152344 17.636719 75.21875 15 79.34375 15.871094 C 81.335938 16.289062 83.046875 17.46875 84.167969 19.179688 C 85.289062 20.890625 85.652344 22.9375 85.234375 24.929688 C 84.8125 26.921875 83.632812 28.632812 81.921875 29.757812 C 80.691406 30.566406 79.230469 30.988281 77.773438 30.988281 Z M 77.773438 30.988281 " fill-opacity="1" fill-rule="evenodd"/><path fill="#ffffff" d="M 48.824219 111.152344 L 68.402344 111.152344 L 78.191406 94.179688 L 68.402344 77.238281 L 48.824219 77.238281 L 39.035156 94.183594 Z M 69.496094 114.941406 L 47.757812 114.941406 C 47.085938 114.941406 46.46875 114.578125 46.128906 113.988281 L 35.246094 95.136719 C 34.910156 94.546875 34.910156 93.847656 35.246094 93.257812 L 46.128906 74.4375 C 46.464844 73.847656 47.085938 73.480469 47.757812 73.480469 L 69.496094 73.480469 C 70.171875 73.480469 70.789062 73.84375 71.125 74.4375 L 82.007812 93.257812 C 82.34375 93.847656 82.34375 94.546875 82.007812 95.136719 L 71.125 113.988281 C 70.789062 114.578125 70.171875 114.941406 69.496094 114.941406 Z M 69.496094 114.941406 " fill-opacity="1" fill-rule="evenodd"/><path fill="#ffffff" d="M 65.542969 108.097656 L 51.683594 108.097656 C 50.648438 108.097656 49.808594 107.253906 49.808594 106.21875 C 49.808594 105.183594 50.648438 104.339844 51.683594 104.339844 L 64.476562 104.339844 L 70.308594 94.183594 L 63.914062 83.132812 C 63.378906 82.234375 63.691406 81.082031 64.617188 80.550781 C 65.515625 80.015625 66.664062 80.328125 67.195312 81.253906 L 74.125 93.257812 C 74.457031 93.847656 74.457031 94.546875 74.125 95.136719 L 67.195312 107.171875 C 66.859375 107.734375 66.214844 108.097656 65.542969 108.097656 Z M 65.542969 108.097656 " fill-opacity="1" fill-rule="evenodd"/><path fill="#ffffff" d="M 42.316406 124.257812 C 42.007812 124.257812 41.671875 124.171875 41.363281 124.003906 C 40.464844 123.46875 40.15625 122.320312 40.6875 121.421875 L 46.101562 112.109375 C 46.636719 111.210938 47.78125 110.90625 48.679688 111.433594 C 49.578125 111.964844 49.886719 113.117188 49.355469 114.015625 L 43.941406 123.328125 C 43.605469 123.917969 42.988281 124.257812 42.316406 124.257812 Z M 42.316406 124.257812 " fill-opacity="1" fill-rule="evenodd"/><path fill="#ffffff" d="M 39.457031 123.496094 C 37.40625 123.496094 35.695312 125.125 35.585938 127.199219 C 35.5 129.332031 37.15625 131.125 39.257812 131.242188 C 41.390625 131.351562 43.1875 129.699219 43.300781 127.566406 C 43.355469 126.53125 42.988281 125.546875 42.292969 124.789062 C 41.59375 124.035156 40.636719 123.585938 39.597656 123.53125 C 39.59375 123.496094 39.535156 123.496094 39.457031 123.496094 Z M 39.484375 135 C 39.375 135 39.257812 135 39.148438 135 C 34.941406 134.804688 31.660156 131.242188 31.855469 127.03125 C 32.050781 122.824219 35.613281 119.542969 39.820312 119.738281 C 41.871094 119.824219 43.75 120.722656 45.125 122.207031 C 46.5 123.722656 47.203125 125.65625 47.117188 127.707031 C 46.917969 131.800781 43.519531 135 39.484375 135 Z M 39.484375 135 " fill-opacity="1" fill-rule="evenodd"/><path fill="#ffffff" d="M 36.875 96.0625 L 26.074219 96.0625 C 25.039062 96.0625 24.195312 95.222656 24.195312 94.183594 C 24.195312 93.148438 25.039062 92.308594 26.074219 92.308594 L 36.875 92.308594 C 37.914062 92.308594 38.753906 93.148438 38.753906 94.183594 C 38.753906 95.222656 37.914062 96.0625 36.875 96.0625 Z M 36.875 96.0625 " fill-opacity="1" fill-rule="evenodd"/><g clip-path="url(#5b6e1c7789)"><path fill="#ffffff" d="M 20.324219 90.316406 C 18.191406 90.316406 16.453125 92.054688 16.453125 94.183594 C 16.453125 96.316406 18.191406 98.054688 20.324219 98.054688 C 22.453125 98.054688 24.191406 96.316406 24.191406 94.183594 C 24.191406 92.054688 22.453125 90.316406 20.324219 90.316406 Z M 20.324219 101.8125 C 16.113281 101.8125 12.695312 98.394531 12.695312 94.183594 C 12.695312 89.976562 16.113281 86.554688 20.324219 86.554688 C 24.53125 86.554688 27.953125 89.976562 27.953125 94.183594 C 27.953125 98.394531 24.53125 101.8125 20.324219 101.8125 Z M 20.324219 101.8125 " fill-opacity="1" fill-rule="evenodd"/></g><path fill="#ffffff" d="M 74.882812 124.257812 C 74.238281 124.257812 73.59375 123.921875 73.253906 123.300781 L 67.871094 113.960938 C 67.335938 113.0625 67.644531 111.914062 68.570312 111.382812 C 69.46875 110.847656 70.621094 111.15625 71.152344 112.082031 L 76.535156 121.394531 C 77.070312 122.292969 76.761719 123.445312 75.832031 123.976562 C 75.527344 124.171875 75.191406 124.257812 74.882812 124.257812 Z M 74.882812 124.257812 " fill-opacity="1" fill-rule="evenodd"/><path fill="#ffffff" d="M 77.773438 123.496094 C 75.75 123.496094 74.070312 125.070312 73.929688 127.089844 C 73.84375 128.125 74.183594 129.109375 74.855469 129.894531 C 75.53125 130.675781 76.484375 131.15625 77.492188 131.210938 C 79.625 131.378906 81.476562 129.753906 81.617188 127.621094 C 81.703125 126.582031 81.363281 125.601562 80.691406 124.816406 C 80.015625 124.03125 79.0625 123.554688 78.054688 123.496094 C 77.941406 123.496094 77.855469 123.496094 77.773438 123.496094 Z M 77.773438 135 C 77.605469 135 77.410156 135 77.238281 134.972656 C 75.1875 134.832031 73.339844 133.90625 72.019531 132.363281 C 70.671875 130.820312 70.027344 128.855469 70.167969 126.808594 C 70.476562 122.597656 74.125 119.433594 78.332031 119.738281 C 80.378906 119.878906 82.230469 120.804688 83.546875 122.347656 C 84.894531 123.890625 85.539062 125.851562 85.402344 127.902344 C 85.121094 131.914062 81.757812 135 77.773438 135 Z M 77.773438 135 " fill-opacity="1" fill-rule="evenodd"/><path fill="#ffffff" d="M 81.558594 92.308594 L 101.140625 92.308594 L 110.929688 75.363281 L 101.140625 58.417969 L 81.558594 58.417969 L 71.769531 75.363281 Z M 102.230469 96.0625 L 80.492188 96.0625 C 79.816406 96.0625 79.199219 95.699219 78.863281 95.109375 L 67.980469 76.285156 C 67.644531 75.699219 67.644531 74.996094 67.980469 74.410156 L 78.863281 55.585938 C 79.199219 55 79.816406 54.632812 80.492188 54.632812 L 102.230469 54.632812 C 102.90625 54.632812 103.519531 54.996094 103.859375 55.585938 L 114.742188 74.410156 C 115.078125 74.996094 115.078125 75.699219 114.742188 76.285156 L 103.859375 95.113281 C 103.519531 95.699219 102.90625 96.0625 102.230469 96.0625 Z M 102.230469 96.0625 " fill-opacity="1" fill-rule="evenodd"/><path fill="#ffffff" d="M 98.277344 89.246094 L 84.417969 89.246094 C 83.378906 89.246094 82.539062 88.40625 82.539062 87.367188 C 82.539062 86.332031 83.378906 85.492188 84.417969 85.492188 L 98.277344 85.492188 C 99.3125 85.492188 100.152344 86.332031 100.152344 87.367188 C 100.1875 88.40625 99.3125 89.246094 98.277344 89.246094 Z M 98.277344 89.246094 " fill-opacity="1" fill-rule="evenodd"/><path fill="#ffffff" d="M 98.277344 65.238281 L 84.417969 65.238281 C 83.378906 65.238281 82.539062 64.394531 82.539062 63.359375 C 82.539062 62.320312 83.378906 61.480469 84.417969 61.480469 L 98.277344 61.480469 C 99.3125 61.480469 100.152344 62.320312 100.152344 63.359375 C 100.1875 64.394531 99.3125 65.238281 98.277344 65.238281 Z M 98.277344 65.238281 " fill-opacity="1" fill-rule="evenodd"/><path fill="#ffffff" d="M 107.644531 105.433594 C 107 105.433594 106.355469 105.101562 106.015625 104.480469 L 100.601562 95.140625 C 100.066406 94.242188 100.378906 93.089844 101.304688 92.558594 C 102.203125 92.027344 103.351562 92.335938 103.882812 93.261719 L 109.296875 102.601562 C 109.832031 103.5 109.523438 104.652344 108.59375 105.183594 C 108.289062 105.347656 107.953125 105.433594 107.644531 105.433594 Z M 107.644531 105.433594 " fill-opacity="1" fill-rule="evenodd"/><path fill="#ffffff" d="M 110.503906 104.648438 C 108.375 104.648438 106.636719 106.386719 106.636719 108.515625 C 106.636719 110.648438 108.375 112.386719 110.503906 112.386719 C 112.636719 112.386719 114.375 110.648438 114.375 108.515625 C 114.378906 106.386719 112.640625 104.648438 110.503906 104.648438 Z M 110.503906 116.179688 C 106.296875 116.179688 102.875 112.757812 102.875 108.550781 C 102.875 104.339844 106.296875 100.921875 110.503906 100.921875 C 114.714844 100.921875 118.132812 104.339844 118.132812 108.550781 C 118.136719 112.726562 114.714844 116.179688 110.503906 116.179688 Z M 110.503906 116.179688 " fill-opacity="1" fill-rule="evenodd"/><path fill="#ffffff" d="M 123.886719 77.242188 L 113.085938 77.242188 C 112.046875 77.242188 111.207031 76.402344 111.207031 75.363281 C 111.207031 74.328125 112.046875 73.484375 113.085938 73.484375 L 123.886719 73.484375 C 124.921875 73.484375 125.761719 74.328125 125.761719 75.363281 C 125.796875 76.402344 124.949219 77.242188 123.886719 77.242188 Z M 123.886719 77.242188 " fill-opacity="1" fill-rule="evenodd"/><g clip-path="url(#bb1e2c661a)"><path fill="#ffffff" d="M 129.636719 71.492188 C 127.507812 71.492188 125.765625 73.234375 125.765625 75.363281 C 125.765625 77.496094 127.507812 79.234375 129.636719 79.234375 C 131.769531 79.234375 133.507812 77.496094 133.507812 75.363281 C 133.507812 73.203125 131.769531 71.492188 129.636719 71.492188 Z M 129.636719 82.992188 C 125.429688 82.992188 122.007812 79.570312 122.007812 75.363281 C 122.007812 71.15625 125.429688 67.734375 129.636719 67.734375 C 133.84375 67.734375 137.265625 71.15625 137.265625 75.363281 C 137.292969 79.570312 133.875 82.992188 129.636719 82.992188 Z M 129.636719 82.992188 " fill-opacity="1" fill-rule="evenodd"/></g></svg>