<svg xmlns="http://www.w3.org/2000/svg" xmlns:xlink="http://www.w3.org/1999/xlink" width="200" zoomAndPan="magnify" viewBox="0 0 150 149.999998" height="200" preserveAspectRatio="xMidYMid meet" version="1.0"><path fill="#ffffff" d="M 69.066406 65.183594 C 67.792969 61.203125 64.890625 57.8125 61.296875 56.109375 C 54.351562 52.816406 47.109375 53.257812 40.863281 53.929688 C 40.066406 54.015625 39.367188 54.507812 39.019531 55.230469 C 38.671875 55.957031 38.726562 56.808594 39.160156 57.488281 C 39.933594 58.703125 41.066406 60.554688 41.613281 61.554688 C 43.003906 64.089844 43.65625 67.015625 44.160156 69.558594 C 45.382812 75.710938 51.414062 81.578125 59.453125 81.578125 C 60.292969 81.578125 61.15625 81.515625 62.039062 81.378906 C 63.308594 81.1875 64.179688 80 63.984375 78.734375 C 63.792969 77.464844 62.59375 76.589844 61.335938 76.789062 C 54.941406 77.761719 49.652344 73.371094 48.714844 68.652344 C 48.144531 65.769531 47.394531 62.433594 45.6875 59.320312 C 45.515625 59.003906 45.296875 58.628906 45.058594 58.21875 C 50.398438 57.886719 55.007812 58.265625 59.308594 60.304688 C 61.757812 61.46875 63.753906 63.816406 64.640625 66.59375 C 65.050781 67.871094 65.328125 69.609375 64.96875 71.597656 C 62.878906 69.273438 60.363281 66.789062 57.261719 64.121094 C 56.289062 63.28125 54.820312 63.394531 53.988281 64.367188 C 53.148438 65.339844 53.261719 66.804688 54.234375 67.644531 C 58.351562 71.183594 61.382812 74.34375 63.648438 77.160156 C 63.792969 77.472656 64.007812 77.75 64.28125 77.976562 C 68.613281 83.589844 69.886719 87.753906 70.757812 90.644531 C 70.875 91.039062 70.988281 91.410156 71.097656 91.757812 C 68.757812 96.683594 67.335938 101.3125 66.695312 104.8125 C 66.464844 106.074219 67.300781 107.28125 68.5625 107.515625 C 68.703125 107.542969 68.84375 107.550781 68.984375 107.550781 C 70.082031 107.550781 71.0625 106.765625 71.265625 105.648438 C 71.882812 102.265625 73.285156 97.738281 75.648438 92.949219 C 75.679688 92.890625 75.707031 92.832031 75.734375 92.769531 C 77.183594 89.851562 79.011719 86.847656 81.230469 83.933594 C 81.414062 83.90625 81.601562 83.867188 81.785156 83.792969 C 87.015625 81.644531 93.066406 83.007812 93.125 83.019531 C 94.371094 83.308594 95.621094 82.535156 95.914062 81.289062 C 96.207031 80.042969 95.433594 78.792969 94.1875 78.496094 C 93.984375 78.449219 90.660156 77.695312 86.5 78.019531 C 89.777344 74.910156 93.632812 72.117188 98.164062 69.976562 C 99.324219 69.429688 99.816406 68.046875 99.269531 66.886719 C 98.722656 65.726562 97.335938 65.230469 96.179688 65.777344 C 93.554688 67.019531 91.152344 68.46875 88.917969 70.050781 L 89.023438 69.699219 C 89.375 68.464844 88.660156 67.179688 87.429688 66.824219 C 86.195312 66.472656 84.914062 67.183594 84.558594 68.417969 L 82.613281 75.195312 C 82.59375 75.265625 82.585938 75.335938 82.574219 75.40625 C 79.554688 78.402344 76.992188 81.632812 74.886719 84.902344 C 73.773438 81.074219 74.277344 77.703125 75.035156 75.332031 C 76.433594 70.953125 79.585938 67.238281 83.46875 65.398438 C 90.507812 62.070312 98.003906 61.644531 106.816406 62.355469 C 106.128906 63.484375 105.457031 64.625 104.992188 65.476562 C 102.546875 69.933594 101.464844 74.753906 100.640625 78.921875 C 99.769531 83.316406 97.339844 87.097656 93.984375 89.296875 C 90.34375 91.675781 85.742188 92.285156 80.328125 91.09375 C 79.070312 90.824219 77.835938 91.613281 77.5625 92.863281 C 77.289062 94.117188 78.078125 95.355469 79.332031 95.632812 C 81.425781 96.089844 83.445312 96.320312 85.390625 96.320312 C 89.5625 96.320312 93.34375 95.261719 96.527344 93.183594 C 100.984375 90.265625 104.066406 85.519531 105.195312 79.820312 C 105.953125 75.996094 106.9375 71.585938 109.066406 67.707031 C 109.863281 66.242188 111.546875 63.492188 112.71875 61.648438 C 113.152344 60.96875 113.203125 60.117188 112.855469 59.390625 C 112.507812 58.667969 111.808594 58.175781 111.011719 58.089844 C 101.964844 57.117188 91.472656 56.476562 81.484375 61.203125 C 76.457031 63.582031 72.390625 68.339844 70.609375 73.917969 C 70.214844 75.160156 69.953125 76.421875 69.792969 77.6875 C 69.394531 77.097656 68.957031 76.488281 68.492188 75.863281 C 69.984375 72.449219 70.191406 68.714844 69.066406 65.183594 Z M 69.066406 65.183594 " fill-opacity="1" fill-rule="nonzero"/><path fill="#ffffff" d="M 55.5625 120.710938 C 55.863281 120.839844 56.167969 120.898438 56.472656 120.898438 C 57.375 120.898438 58.234375 120.367188 58.613281 119.484375 C 59.113281 118.304688 58.5625 116.941406 57.382812 116.4375 C 39.082031 108.640625 28.21875 90.101562 30.351562 70.304688 C 32.789062 47.660156 51.746094 30.742188 73.9375 30.226562 L 68.207031 34.84375 C 67.207031 35.652344 67.050781 37.113281 67.855469 38.109375 C 68.3125 38.679688 68.984375 38.976562 69.664062 38.976562 C 70.175781 38.976562 70.691406 38.808594 71.121094 38.464844 L 81.675781 29.960938 C 82.675781 29.15625 82.832031 27.695312 82.03125 26.695312 L 73.527344 16.140625 C 72.722656 15.140625 71.261719 14.984375 70.261719 15.789062 C 69.265625 16.59375 69.105469 18.054688 69.910156 19.054688 L 75.148438 25.558594 C 50.109375 25.460938 28.476562 44.371094 25.734375 69.804688 C 23.382812 91.652344 35.371094 112.109375 55.5625 120.710938 Z M 55.5625 120.710938 " fill-opacity="1" fill-rule="nonzero"/><path fill="#ffffff" d="M 92.195312 33.609375 C 110.484375 41.175781 121.78125 60.222656 119.660156 79.929688 C 117.21875 102.574219 98.257812 119.496094 76.0625 120.003906 L 81.796875 115.386719 C 82.796875 114.578125 82.953125 113.117188 82.152344 112.121094 C 81.34375 111.121094 79.882812 110.960938 78.886719 111.769531 L 68.328125 120.269531 C 67.847656 120.65625 67.542969 121.214844 67.476562 121.828125 C 67.410156 122.441406 67.589844 123.054688 67.976562 123.535156 L 76.480469 134.089844 C 76.9375 134.660156 77.609375 134.957031 78.289062 134.957031 C 78.800781 134.957031 79.3125 134.785156 79.746094 134.441406 C 80.742188 133.636719 80.902344 132.175781 80.097656 131.175781 L 74.851562 124.667969 C 74.914062 124.667969 74.976562 124.675781 75.039062 124.675781 C 100.003906 124.671875 121.542969 105.796875 124.277344 80.425781 C 126.617188 58.683594 114.152344 37.667969 93.96875 29.320312 C 92.785156 28.832031 91.425781 29.394531 90.933594 30.578125 C 90.445312 31.761719 91.011719 33.117188 92.195312 33.609375 Z M 92.195312 33.609375 " fill-opacity="1" fill-rule="nonzero"/></svg>